<?xml version="1.0" encoding="utf-8"?>
<!-- Generator: Adobe Illustrator 19.2.1, SVG Export Plug-In . SVG Version: 6.00 Build 0)  -->
<svg version="1.1" id="layer" xmlns="http://www.w3.org/2000/svg" xmlns:xlink="http://www.w3.org/1999/xlink" x="0px" y="0px"
	 viewBox="0 0 652 652" style="enable-background:new 0 0 652 652;" xml:space="preserve">
<style type="text/css">
	.st0{fill:#002550;}
</style>
<g>
	<path class="st0" d="M316.6,265.6c25.2,0,24.8,0,24.8,8.4v52.9h35.5V180.4h-35.5v43.9c0,8.7,0.4,8.7-24.8,8.7
		c-25.7,0-25.5,0-25.5-8.7v-43.9h-35v146.4h35V274C291.1,265.6,291,265.6,316.6,265.6"/>
	<path class="st0" d="M441,211.3c-5.4-28.1-9.5-43.3-22.1-56.1c16.7-8.6,19-34.1,16.7-51.4c0,0-12.8-6.4-21.3-9.7
		c-9.4-3.6-24.5-7.4-24.5-7.4c0,13.7,1.6,34.4-8.5,41.2c-10.3,6-35.5,0-39.6-13.1c-1.3-4-2.5-17.6,0-34.6
		c-3.6-0.7-13.6-3.2-25.7-3.2c-13.1,0-21.6,2.4-25.2,3.2c1.8,17.1,1.3,30.7,0,34.6c-4.4,13.1-29.3,19.1-39.3,13.1
		c-11.1-6.8-8.5-27.5-8.5-41.2c0,0-16.2,4.1-26.2,7.9c-8.1,3.1-20.3,9.1-20.3,9.1c-2.6,17.3,0,42.8,16.7,51.4
		c-12.6,12.9-16.7,28-22.1,56.1c-4.4,25.2-3.4,42.7-3.1,57.4c1.2,19.9,1.2,30.7,5.9,48.8c6.7,20.8,10.6,30.4,24.1,44.9
		c27.5,29.2,72.5,27.6,98.3,27.6v-0.1c25.7,0.1,72.2,2.5,98.8-27.5c12.9-14.6,16.2-24.1,22.6-44.9c5.7-18.1,4.9-28.9,6.7-48.8
		C445.1,254.1,445.9,236.5,441,211.3 M391.4,333c-6.2,10.8-15.2,13.4-20.4,15.2c-15.1,4.2-25.2,4.2-54.5,4.2c-30.1,0-40.1,0-55-4.2
		c-5.2-1.8-14.4-4.5-21.1-15.2c-12.3-21.5-12.3-61.9-12.3-81.3c0-19.4,0-53.7,12.3-74.9c6.7-11.1,15.9-13.7,21.1-15.5
		c14.9-3.9,24.9-3.9,55-3.9c29.3,0,39.3,0,54.5,3.9c5.2,1.8,14.2,4.4,20.4,15.5c13.3,21.2,13.3,57.9,13.3,77.3
		C404.8,273,404.8,311.5,391.4,333z"/>
	<path class="st0" d="M286.5,440.1v9.1c-4.4-6.2-10.5-11-19.6-11c-20.5,0-32.4,14.8-32.4,38.6c0,12.1,3.7,22.9,10.4,29.6
		c5.2,5.5,11.3,8.2,19.5,8.2c9.4,0,16.2-4.3,21.3-10.8v28.7h17.2v-92.2L286.5,440.1 M269,500.2c-4.9,0-8-1.5-11-4.7
		c-4.1-4.2-6.4-11-6.4-19.2c0-7.8,2.5-14.8,6.7-19.3c3.1-3.2,6.1-4.7,10.7-4.7c10,0,15.3,6.6,16.8,18.5c0.2,1.8,0.3,8.4,0.3,9.6
		C285,493.2,279.6,500.2,269,500.2z"/>
	<path class="st0" d="M635.5,418.6c-2.2-2.3-4.9-3.4-8-3.4c-3,0-5.8,1.1-7.9,3.4c-2.2,2.2-3.3,4.9-3.3,8.1c0,3.1,1.1,5.8,3.3,8
		c2.2,2.3,4.9,3.4,7.9,3.4c3.1,0,5.8-1.1,8-3.4c2.1-2.2,3.2-4.9,3.2-8C638.7,423.4,637.6,420.7,635.5,418.6 M633.9,433.2
		c-1.8,1.8-3.8,2.7-6.4,2.7c-2.5,0-4.6-0.9-6.4-2.7c-1.7-1.8-2.6-4-2.6-6.5c0-2.6,0.9-4.7,2.7-6.6c1.7-1.8,3.8-2.6,6.3-2.6
		c2.5,0,4.6,0.8,6.4,2.6c1.8,1.8,2.7,3.9,2.7,6.6C636.5,429.2,635.6,431.3,633.9,433.2 M632.6,431.8V430c0-0.7-0.3-1.4-0.7-2.1
		c-0.4-0.4-0.7-0.8-1.1-1c0.3-0.1,0.5-0.2,0.6-0.3c0.9-0.5,1.4-1.5,1.3-2.8c0.1-1.6-0.6-2.8-2-3.4c-0.8-0.3-1.9-0.4-3.4-0.4h-4.5
		v12.8h2.8v-4.7h1.3c1.1,0,1.8,0.1,2.1,0.3c0.6,0.3,1,1.2,1,2.5v0.9l0.1,0.4v0.3l0.1,0.3h2.9l-0.3-0.7
		C632.7,432.2,632.7,432.1,632.6,431.8 M629,425.7c-0.4,0.2-1,0.3-1.9,0.3h-1.5v-3.7h1.4c1.2,0,2,0.2,2.5,0.4
		c0.3,0.3,0.6,0.6,0.6,1.6C630,425,629.7,425.4,629,425.7"/>
	<g>
		<path class="st0" d="M571.4,492.3c-0.5-5.5,2.7-9.4,10.8-10.8c2.1-0.4,4.3-0.6,6.5-0.9c3.2-0.5,7.1-1.4,10.4-3.7V488
			c0,9-8.8,12.3-15.2,12.3C577.4,500.3,571.8,497.8,571.4,492.3 M616.1,459.7c0-5.4-1.8-10-5.3-13.5c-5.1-5.1-13.1-8-23.4-8
			c-10.2,0-27.4,2.3-29.4,21.9h17.3c-0.2-9.2,11.2-8.3,11.2-8.3c3.7,0,8.2,1.1,10.6,3.2c1.6,1.2,2.5,3.1,2.5,6.1
			c0.4,4.9-1.9,7.3-18.1,8.8c-12.4,1.2-27.3,4.7-27.3,23c0,5.8,2,10.8,5.7,14.6c4.4,4.5,11.2,7,18.9,7c10.3,0,16.3-2.5,21.5-8.6
			l0.8,6.7h16.6V510c-2.2-1.7-1.6-8.9-1.6-8.9V459.7z M548.7,463c0-7.6-2.1-13.6-6.4-17.9c-4.4-4.5-10.6-6.9-18.7-6.9
			c-8.4,0-14.7,4.5-19.9,12.8v-10.9h-16.2v72.5h17.1v-42.8c0-5.2,1.1-10,4.3-13.3c2.9-2.9,6.9-4.5,11.8-4.5
			c7.9,0.1,10.6,4.9,10.9,15.3v45.3h17V463z M471.9,437.8c-5.6,0.8-12.3,7.3-15.2,15v-12.7h-16.3v72.5h17.3V478
			c0-7.8,0.5-13.8,4-18.4c2.7-3.5,7.4-7.1,12.2-7.1c4.7,0.2,7.4,1.3,7.4,1.3v-15.7C481.4,438.1,476.8,437,471.9,437.8 M373.7,440.1
			h-17.9l-15.3,55.8l-15.8-55.8h-18.6l24.7,72.5h18.4L373.7,440.1z M200.9,500.6c-7.4,0.1-13.1-3.1-14.2-9.6h-17.4
			c0.8,18.3,18.9,23.8,31.3,23.5c12.5-0.1,18.2-3.2,23.8-8.9c3.9-4,5.9-9,5.9-15c0-14.2-10.5-18.8-22.5-21.7L204,468
			c-9.3-1.9-16.9-3.7-16.5-9.2c0.4-5.5,6.3-6.7,10.9-6.7c4.6-0.1,8.4,0.4,11.1,6h17.9c-1.8-14-14.5-20.1-27.9-19.9
			c-13.2,0.2-28.9,5.6-28.9,21.2c0,14.7,10,19.1,22,21.8c1.6,0.3,3.2,0.7,4.8,1.1c9,1.9,15.7,3.7,15.7,9.7
			C213.1,498,208.2,500.4,200.9,500.6 M15.1,512.7h18.7v-43H73v43h18.6v-96.8H73v37H33.8v-37H15.1V512.7z M386.3,492.3
			c-0.5-5.5,2.6-9.4,10.8-10.8c2.1-0.5,4.3-0.6,6.4-0.9c3.2-0.5,7-1.4,10.3-3.7V488c0,9-8.8,12.3-15.2,12.3
			C392.2,500.2,386.7,497.8,386.3,492.3 M430.9,459.7c0-5.4-1.8-9.9-5.3-13.5c-4.9-5.1-12-7.9-22.1-7.9c-10.2,0-27.4,2.2-29.4,21.9
			h17.2c-0.2-9.2,11.3-8.4,11.3-8.4c3.7,0,7,1.1,9.4,3.2c1.5,1.2,2.5,3.1,2.5,6.2c0.3,4.9-2,7.2-18.1,8.8
			c-12.5,1.2-27.3,4.7-27.3,23c0,5.8,1.9,10.9,5.6,14.6c4.5,4.5,11.2,7,18.9,7c10.4,0,16.3-2.5,21.6-8.6l0.9,6.8h16.5V510
			c-2.2-1.7-1.7-9-1.7-9V459.7z M162.6,440.1h-17.3v42.5c0,12-4.7,18.1-14.4,18.1c-3.8,0-6.6-1.5-8.5-3.5c-2.5-2.6-3.7-6.8-3.7-13
			v-44.2h-17.1v45.7c0,10,2.2,17.2,6.9,21.9c4.4,4.6,9.8,6.7,18.8,6.7c6.2,0,13.9-4.3,18.3-10v8.2h17V440.1z"/>
	</g>
	<path class="st0" d="M635.5,418.6c-2.2-2.3-4.9-3.4-8-3.4c-3,0-5.8,1.1-7.9,3.4c-2.2,2.2-3.3,4.9-3.3,8.1c0,3.1,1.1,5.8,3.3,8
		c2.2,2.3,4.9,3.4,7.9,3.4c3.1,0,5.8-1.1,8-3.4c2.1-2.2,3.2-4.9,3.2-8C638.7,423.4,637.6,420.7,635.5,418.6 M633.9,433.2
		c-1.8,1.8-3.8,2.7-6.4,2.7c-2.5,0-4.6-0.9-6.4-2.7c-1.7-1.8-2.6-4-2.6-6.5c0-2.6,0.9-4.7,2.7-6.6c1.7-1.8,3.8-2.6,6.3-2.6
		c2.5,0,4.6,0.8,6.4,2.6c1.8,1.8,2.7,3.9,2.7,6.6C636.5,429.2,635.6,431.3,633.9,433.2 M632.6,431.8V430c0-0.7-0.3-1.4-0.7-2.1
		c-0.4-0.4-0.7-0.8-1.1-1c0.3-0.1,0.5-0.2,0.6-0.3c0.9-0.5,1.4-1.5,1.3-2.8c0.1-1.6-0.6-2.8-2-3.4c-0.8-0.3-1.9-0.4-3.4-0.4h-4.5
		v12.8h2.8v-4.7h1.3c1.1,0,1.8,0.1,2.1,0.3c0.6,0.3,1,1.2,1,2.5v0.9l0.1,0.4v0.3l0.1,0.3h2.9l-0.3-0.7
		C632.7,432.2,632.7,432.1,632.6,431.8 M629,425.7c-0.4,0.2-1,0.3-1.9,0.3h-1.5v-3.7h1.4c1.2,0,2,0.2,2.5,0.4
		c0.3,0.3,0.6,0.6,0.6,1.6C630,425,629.7,425.4,629,425.7"/>
	<rect x="320" y="527.2" class="st0" width="297.7" height="5.1"/>
	<polyline class="st0" points="320,546.9 328.6,546.9 335,565.9 335.1,565.9 341.3,546.9 349.8,546.9 349.8,574.5 344.1,574.5 
		344.1,555 344,555 337.3,574.5 332.6,574.5 325.8,555.2 325.7,555.2 325.7,574.5 320,574.5 320,546.9 	"/>
	<path class="st0" d="M367.9,546.3c8.5,0,13.6,6.4,13.6,14.6c0,7.9-5.1,14.3-13.6,14.3c-8.5,0-13.6-6.4-13.6-14.3
		C354.3,552.6,359.4,546.3,367.9,546.3 M367.9,570.1c5.5,0,7.5-4.7,7.5-9.2c0-4.9-2-9.5-7.5-9.5c-5.4,0-7.5,4.6-7.5,9.5
		C360.4,565.4,362.4,570.1,367.9,570.1"/>
	<polyline class="st0" points="391.4,552 383.2,552 383.2,546.9 405.8,546.9 405.8,552 397.5,552 397.5,574.5 391.4,574.5 
		391.4,552 	"/>
	<path class="st0" d="M421,546.3c8.5,0,13.6,6.4,13.6,14.6c0,7.9-5.1,14.3-13.6,14.3c-8.5,0-13.6-6.4-13.6-14.3
		C407.5,552.6,412.5,546.3,421,546.3 M421,570.1c5.5,0,7.5-4.7,7.5-9.2c0-4.9-2.1-9.5-7.5-9.5c-5.4,0-7.5,4.6-7.5,9.5
		C413.5,565.4,415.6,570.1,421,570.1"/>
	<path class="st0" d="M439.2,546.9H454c4.9,0,8.1,3.4,8.1,7.6c0,3.2-1.3,5.7-4.4,6.9v0.1c2.9,0.8,3.8,3.6,4,6.5c0.2,1.7,0,5,1.2,6.5
		h-6.1c-0.7-1.7-0.6-4.4-1-6.6c-0.4-2.9-1.6-4.2-4.6-4.2h-6.1v10.8h-6.1V546.9 M445.2,559.4h6.6c2.8,0,4.2-1.2,4.2-4
		c0-2.7-1.4-3.8-4.2-3.8h-6.6V559.4z"/>
	<path class="st0" d="M485.5,556.2c-0.4-2.7-3.1-4.8-6-4.8c-5.5,0-7.5,4.6-7.5,9.5c0,4.6,2.1,9.2,7.5,9.2c3.7,0,5.8-2.5,6.2-6.2h5.9
		c-0.6,6.9-5.3,11.3-12.1,11.3c-8.5,0-13.6-6.4-13.6-14.3c0-8.2,5-14.6,13.6-14.6c6,0,11.2,3.5,11.9,9.9H485.5"/>
	<polyline class="st0" points="502,563.8 491.9,546.9 498.7,546.9 505.2,557.8 511.6,546.9 518.4,546.9 508.1,563.9 508.1,574.5 
		502,574.5 502,563.8 	"/>
	<path class="st0" d="M538,556.2c-0.4-2.7-3.1-4.8-6-4.8c-5.5,0-7.5,4.6-7.5,9.5c0,4.6,2.1,9.2,7.5,9.2c3.7,0,5.8-2.5,6.2-6.2h5.9
		c-0.6,6.9-5.3,11.3-12.1,11.3c-8.5,0-13.6-6.4-13.6-14.3c0-8.2,5.1-14.6,13.6-14.6c6,0,11.2,3.5,11.9,9.9H538"/>
	<polyline class="st0" points="548.5,546.9 554.6,546.9 554.6,569.4 568,569.4 568,574.5 548.5,574.5 548.5,546.9 	"/>
	<polyline class="st0" points="571.5,546.9 592.1,546.9 592.1,552 577.5,552 577.5,557.9 590.9,557.9 590.9,562.7 577.5,562.7 
		577.5,569.4 592.4,569.4 592.4,574.5 571.5,574.5 571.5,546.9 	"/>
	<path class="st0" d="M601.1,565.4c0,3.7,2.9,5.1,6.1,5.1c2.2,0,5.4-0.6,5.4-3.4c0-3.1-4.2-3.5-8.2-4.6c-4.1-1-8.2-2.8-8.2-7.8
		c0-5.7,5.3-8.4,10.3-8.4c5.8,0,11,2.5,11,8.9h-5.9c-0.2-3.3-2.5-4.2-5.5-4.2c-2,0-4.2,0.8-4.2,3.1c0,2.1,1.3,2.4,8.2,4.2
		c2.1,0.5,8.2,1.8,8.2,8c0,5.1-3.9,8.9-11.5,8.9c-6.1,0-11.9-3-11.7-9.8H601.1"/>
</g>
</svg>
